HIERARCHY
ROOT Hips
{
	OFFSET 0.000000 0.000000 0.000000
	CHANNELS 6 Xposition Yposition Zposition Xrotation Yrotation Zrotation
	JOINT LeftUpLeg_virtual
	{
		OFFSET 0.000000 0.000000 0.000000
		CHANNELS 3 Xrotation Yrotation Zrotation
		JOINT LeftUpLeg
		{
			OFFSET 10.205400 -3.823500 0.155100
			CHANNELS 3 Xrotation Yrotation Zrotation
			JOINT LeftLeg
			{
				OFFSET 0.708757 -12.982077 0.567790
				CHANNELS 3 Xrotation Yrotation Zrotation
				JOINT LeftFoot
				{
					OFFSET -0.708756 -10.717838 -2.184338
					CHANNELS 3 Xrotation Yrotation Zrotation
					JOINT LeftToeBase
					{
						OFFSET 0.108149 -7.191104 7.560241
						CHANNELS 3 Xrotation Yrotation Zrotation
						JOINT LeftToe_End
						{
							OFFSET 0.070230 0.081724 4.490308
							CHANNELS 3 Xrotation Yrotation Zrotation
							End Site
							{
								OFFSET 0 0 0
							}
						}
					}
				}
			}
		}
	}
	JOINT RightUpLeg_virtual
	{
		OFFSET 0.000000 0.000000 0.000000
		CHANNELS 3 Xrotation Yrotation Zrotation
		JOINT RightUpLeg
		{
			OFFSET -10.205400 -3.823500 0.005500
			CHANNELS 3 Xrotation Yrotation Zrotation
			JOINT RightLeg
			{
				OFFSET -0.708756 -12.982134 0.610632
				CHANNELS 3 Xrotation Yrotation Zrotation
				JOINT RightFoot
				{
					OFFSET 0.708754 -10.717769 -1.945823
					CHANNELS 3 Xrotation Yrotation Zrotation
					JOINT RightToeBase
					{
						OFFSET -0.108140 -7.191069 7.372968
						CHANNELS 3 Xrotation Yrotation Zrotation
						JOINT RightToe_End
						{
							OFFSET -0.070227 0.081735 4.479403
							CHANNELS 3 Xrotation Yrotation Zrotation
							End Site
							{
								OFFSET 0 0 0
							}
						}
					}
				}
			}
		}
	}
	JOINT Spine_virtual
	{
		OFFSET 0.000000 0.000000 0.000000
		CHANNELS 3 Xrotation Yrotation Zrotation
		JOINT Spine
		{
			OFFSET 0.000000 6.876099 0.125700
			CHANNELS 3 Xrotation Yrotation Zrotation
			JOINT Spine1
			{
				OFFSET 0.000000 5.730043 0.104720
				CHANNELS 3 Xrotation Yrotation Zrotation
				JOINT Spine1_split
				{
					OFFSET 0.000000 5.730043 0.104720
					CHANNELS 3 Xrotation Yrotation Zrotation
					JOINT Spine2
					{
						OFFSET 0.000000 5.730043 0.104720
						CHANNELS 3 Xrotation Yrotation Zrotation
						JOINT Neck_virtual
						{
							OFFSET 0.000000 0.000000 0.000000
							CHANNELS 3 Xrotation Yrotation Zrotation
							JOINT Neck
							{
								OFFSET 0.000000 10.314075 0.188496
								CHANNELS 3 Xrotation Yrotation Zrotation
								JOINT Head
								{
									OFFSET 0.000000 7.643700 -2.377400
									CHANNELS 3 Xrotation Yrotation Zrotation
									JOINT HeadTop_End
									{
										OFFSET 0.000000 43.788605 -13.619600
										CHANNELS 3 Xrotation Yrotation Zrotation
										End Site
										{
											OFFSET 0 0 0
										}
									}
								}
							}
						}
						JOINT LeftShoulder_virtual
						{
							OFFSET 0.000000 0.000000 0.000000
							CHANNELS 3 Xrotation Yrotation Zrotation
							JOINT LeftShoulder
							{
								OFFSET 2.196100 4.412489 0.087492
								CHANNELS 3 Xrotation Yrotation Zrotation
								JOINT LeftShoulder_split
								{
									OFFSET 2.196100 4.412489 0.087492
									CHANNELS 3 Xrotation Yrotation Zrotation
									JOINT LeftArm
									{
										OFFSET 8.771219 -2.981674 -0.026999
										CHANNELS 3 Xrotation Yrotation Zrotation
										JOINT LeftForeArm
										{
											OFFSET 8.512804 0.000000 -0.000000
											CHANNELS 3 Xrotation Yrotation Zrotation
											JOINT LeftHand
											{
												OFFSET 18.484802 0.000000 -0.000000
												CHANNELS 3 Xrotation Yrotation Zrotation
												End Site
												{
													OFFSET 0 0 0
												}
											}
										}
									}
								}
							}
						}
						JOINT RightShoulder_virtual
						{
							OFFSET 0.000000 0.000000 0.000000
							CHANNELS 3 Xrotation Yrotation Zrotation
							JOINT RightShoulder
							{
								OFFSET -2.196100 4.412496 0.070690
								CHANNELS 3 Xrotation Yrotation Zrotation
								JOINT RightShoulder_split
								{
									OFFSET -2.196100 4.412496 0.070690
									CHANNELS 3 Xrotation Yrotation Zrotation
									JOINT RightArm
									{
										OFFSET -8.771282 -2.981682 -0.094208
										CHANNELS 3 Xrotation Yrotation Zrotation
										JOINT RightForeArm
										{
											OFFSET -8.494598 0.000000 0.000000
											CHANNELS 3 Xrotation Yrotation Zrotation
											JOINT RightHand
											{
												OFFSET -18.483803 0.000000 0.000001
												CHANNELS 3 Xrotation Yrotation Zrotation
												End Site
												{
													OFFSET 0 0 0
												}
											}
										}
									}
								}
							}
						}
					}
				}
			}
		}
	}
}
MOTION
Frames: 10
Frame Time: 0.03333333
1.716879 35.243103 -2.393767 0.000000 0.000000 0.000000 -2.674558 6.646031 0.126936 -8.818913 12.413849 7.798818 16.974523 -6.359745 4.596343 -8.664454 5.628769 -12.584555 1.313885 -3.490912 0.845740 0.000000 0.000000 0.000000 -2.300622 7.165885 0.251017 -3.154814 1.540800 2.334028 13.512835 4.957471 -0.947970 -12.809924 -6.089667 6.002270 3.622959 0.386957 -13.028714 0.000000 0.000000 0.000000 -2.824444 10.597888 -0.351758 2.803821 -4.268661 0.793800 4.174893 -0.964620 0.464999 0.173235 -0.637405 0.082185 0.000000 0.000000 0.000000 2.939645 0.612213 0.784646 -9.721684 6.371017 6.238280 2.385086 -15.222125 -4.553833 0.000000 0.000000 0.000000 2.339711 -0.687357 0.548044 1.422614 -0.261147 -0.839707 0.781355 -1.218832 -2.199732 0.621292 9.519602 -83.295721 12.868602 -24.754306 6.657474 0.000000 0.000000 0.000000 3.067269 -0.551164 0.959849 3.018702 -3.502406 4.837426 -5.536832 0.210098 -1.388573 0.325363 16.028699 75.822743 0.180284 13.226405 2.260214 0.000000 0.000000 0.000000 
1.803619 35.246544 -2.390246 0.000000 0.000000 0.000000 -2.643390 6.425007 0.081299 -8.626819 12.356784 7.501778 16.710118 -6.131828 4.763762 -9.418261 5.700300 -11.988369 1.604632 -3.499818 0.779168 0.000000 0.000000 0.000000 -2.349447 7.059341 0.177001 -3.019240 1.263035 2.251489 13.100065 4.756502 -0.800675 -13.156161 -5.912072 5.262288 4.504786 0.402558 -12.981334 0.000000 0.000000 0.000000 -2.661988 10.439098 -0.471915 2.641350 -4.191723 0.888549 4.239445 -0.977977 0.425396 0.206471 -0.644762 0.086115 0.000000 0.000000 0.000000 3.025943 0.604953 0.778540 -9.634896 6.397740 6.240124 2.308336 -15.045758 -4.560353 0.000000 0.000000 0.000000 2.362993 -0.700811 0.511904 1.452687 -0.287264 -0.793080 0.888412 -1.507274 -2.053453 0.576255 9.479010 -83.346913 12.857387 -24.843312 6.664322 0.000000 0.000000 0.000000 3.053311 -0.556459 0.976173 2.945526 -3.714632 4.643551 -5.641728 0.038429 -1.417262 -0.170834 16.375066 75.962263 0.123887 13.991600 2.109284 0.000000 0.000000 0.000000 
1.955686 35.249725 -2.357876 0.000000 0.000000 0.000000 -2.641105 6.173112 -0.000132 -8.334272 12.520763 7.218415 16.820430 -5.982796 4.891887 -10.148018 5.595536 -11.792219 2.246706 -3.514765 0.882428 0.000000 0.000000 0.000000 -2.447805 6.618646 0.085363 -3.019227 0.915282 1.922380 12.634666 4.833936 -0.500919 -12.742616 -5.527535 5.315024 4.134044 0.592760 -12.766858 0.000000 0.000000 0.000000 -2.598662 10.272307 -0.619729 2.509761 -4.003175 1.058990 4.282081 -0.985859 0.349012 0.220695 -0.643549 0.075549 0.000000 0.000000 0.000000 3.149209 0.602738 0.719551 -9.638554 6.389369 6.297096 2.205116 -14.793420 -4.422389 0.000000 0.000000 0.000000 2.382666 -0.708514 0.423292 1.444100 -0.346742 -0.606271 1.022983 -1.851339 -1.881678 0.498844 9.560107 -83.480362 12.837870 -24.931652 6.623984 0.000000 0.000000 0.000000 3.058592 -0.563648 0.947088 2.822303 -4.008130 4.325923 -5.653824 -0.214849 -1.345371 -0.849299 16.843113 76.230157 0.123281 14.753477 1.572781 0.000000 0.000000 0.000000 
2.159922 35.258629 -2.298426 0.000000 0.000000 0.000000 -2.684425 5.914264 -0.056499 -7.968429 12.922598 6.907763 17.198524 -5.851513 4.945151 -10.760061 5.334508 -11.855610 2.905959 -3.541961 1.209758 0.000000 0.000000 0.000000 -2.502740 6.028777 0.018644 -2.873472 0.678690 1.443723 12.119669 5.064094 -0.092967 -12.168811 -5.102426 5.739609 2.993901 0.880961 -12.417368 0.000000 0.000000 0.000000 -2.634179 10.097264 -0.738489 2.433287 -3.756722 1.250195 4.309363 -0.987041 0.265577 0.205068 -0.643481 0.072729 0.000000 0.000000 0.000000 3.257952 0.601730 0.642527 -9.683909 6.362484 6.380839 2.176989 -14.515004 -4.144493 0.000000 0.000000 0.000000 2.381207 -0.711434 0.312449 1.408262 -0.424907 -0.365421 1.149863 -2.183750 -1.707837 0.466847 9.688914 -83.728072 12.816997 -25.015132 6.531030 0.000000 0.000000 0.000000 3.089441 -0.570443 0.896110 2.671749 -4.297382 3.946407 -5.619729 -0.380254 -1.263342 -1.565756 17.190582 76.607750 0.173452 15.412518 0.721247 0.000000 0.000000 0.000000 
2.402995 35.272358 -2.199015 0.000000 0.000000 0.000000 -2.758476 5.691646 -0.056737 -7.571172 13.456138 6.528169 17.594921 -5.656828 4.951847 -11.362346 5.013569 -11.853492 3.392534 -3.556162 1.696184 0.000000 0.000000 0.000000 -2.471185 5.433768 -0.049397 -2.435776 0.527450 0.939449 11.490940 5.128456 0.343335 -12.051561 -4.900032 5.955767 2.425478 1.126500 -12.060004 0.000000 0.000000 0.000000 -2.719363 9.950398 -0.816038 2.432576 -3.517820 1.401922 4.318008 -0.982432 0.208150 0.183185 -0.637022 0.067391 0.000000 0.000000 0.000000 3.306866 0.598780 0.587049 -9.760739 6.348450 6.473070 2.317000 -14.193235 -3.773973 0.000000 0.000000 0.000000 2.347132 -0.713472 0.224115 1.348920 -0.532104 -0.135037 1.338703 -2.419879 -1.526740 0.524310 9.741948 -84.071986 12.822784 -25.138327 6.392826 0.000000 0.000000 0.000000 3.129808 -0.579049 0.851108 2.533301 -4.476030 3.574778 -5.570678 -0.414115 -1.172152 -2.248313 17.222407 77.052764 0.237488 16.023719 -0.307743 0.000000 0.000000 0.000000 
2.683859 35.294579 -2.066161 0.000000 0.000000 0.000000 -2.802708 5.518468 -0.018561 -7.047443 13.949038 6.018422 17.785418 -5.292368 4.997623 -12.107793 4.754706 -11.378059 3.776486 -3.540248 2.168751 0.000000 0.000000 0.000000 -2.408951 5.003017 -0.119039 -1.735602 0.382044 0.374010 10.824647 4.939388 0.849426 -12.494285 -4.984354 5.949783 2.793980 1.325864 -11.952110 0.000000 0.000000 0.000000 -2.761670 9.886541 -0.854363 2.531939 -3.338759 1.482071 4.293123 -0.970481 0.198564 0.155061 -0.574970 0.061529 0.000000 0.000000 0.000000 3.274769 0.594829 0.579336 -9.839766 6.380668 6.565407 2.697936 -13.756722 -3.330596 0.000000 0.000000 0.000000 2.274520 -0.713374 0.196636 1.278540 -0.677486 0.003218 1.607775 -2.523205 -1.339911 0.670187 9.635342 -84.443432 12.897480 -25.378181 6.239434 0.000000 0.000000 0.000000 3.155222 -0.583396 0.839436 2.424420 -4.456656 3.225327 -5.486768 -0.351562 -1.045844 -2.867186 16.829055 77.519191 0.280604 16.708635 -1.361027 0.000000 0.000000 0.000000 
3.003891 35.333416 -1.911459 0.000000 0.000000 0.000000 -2.809525 5.273355 0.015097 -6.373307 14.145189 5.393006 17.802359 -4.862546 5.162094 -12.826408 4.640382 -10.545538 4.216421 -3.460918 2.479460 0.000000 0.000000 0.000000 -2.323612 4.819639 -0.162520 -0.938414 0.161290 -0.452780 10.296199 4.741338 1.409860 -13.119588 -5.227828 6.584176 3.261757 1.572097 -12.390927 0.000000 0.000000 0.000000 -2.751409 9.871573 -0.834661 2.738796 -3.230483 1.458234 4.223535 -0.953191 0.250186 0.138087 -0.486328 0.066744 0.000000 0.000000 0.000000 3.161221 0.591998 0.635879 -9.909265 6.464792 6.676945 3.309370 -13.188475 -2.831310 0.000000 0.000000 0.000000 2.166766 -0.709373 0.251857 1.209211 -0.839178 0.052538 1.897921 -2.428224 -1.211984 0.847235 9.332630 -84.785529 13.051024 -25.713751 6.078799 0.000000 0.000000 0.000000 3.137647 -0.582627 0.871452 2.357486 -4.230563 2.916495 -5.381837 -0.242611 -0.909587 -3.457017 16.001899 77.974348 0.293071 17.517787 -2.302738 0.000000 0.000000 0.000000 
3.347042 35.379879 -1.766005 0.000000 0.000000 0.000000 -2.774273 5.017501 0.018335 -5.624625 13.938623 4.697658 17.691372 -4.439307 5.410060 -13.523945 4.654711 -9.404701 4.699643 -3.323986 2.572602 0.000000 0.000000 0.000000 -2.302349 4.718573 -0.196780 -0.359165 -0.150674 -1.535846 10.050026 4.700633 1.973431 -13.380722 -5.417986 8.493774 3.200245 1.929098 -13.479319 0.000000 0.000000 0.000000 -2.723342 9.788974 -0.795383 3.055284 -3.194693 1.318069 4.090891 -0.936686 0.360955 0.119542 -0.419226 0.075424 0.000000 0.000000 0.000000 2.985610 0.589437 0.752545 -9.974105 6.591527 6.835720 4.072891 -12.514402 -2.281287 0.000000 0.000000 0.000000 2.042928 -0.700986 0.392691 1.134377 -0.979150 0.057304 2.112752 -2.177182 -1.188940 0.996041 8.850408 -85.020467 13.321664 -26.095668 5.960707 0.000000 0.000000 0.000000 3.069804 -0.578201 0.947428 2.336949 -3.835856 2.667707 -5.281291 -0.265786 -0.767225 -3.990852 14.945513 78.336710 0.259575 18.326735 -3.011639 0.000000 0.000000 0.000000 
3.707080 35.409286 -1.595126 0.000000 0.000000 0.000000 -2.689560 4.664908 -0.022199 -4.770860 13.398057 3.929490 17.614435 -4.082344 5.681743 -14.305321 4.682951 -8.024297 5.025268 -3.166211 2.463103 0.000000 0.000000 0.000000 -2.402508 4.634814 -0.221531 -0.305632 -0.518852 -2.797534 10.425658 4.881841 2.619116 -12.954787 -5.410465 11.433397 2.972588 2.339575 -14.902214 0.000000 0.000000 0.000000 -2.751071 9.589635 -0.757838 3.461895 -3.231928 1.100688 3.883078 -0.929637 0.528897 0.105280 -0.385764 0.088172 0.000000 0.000000 0.000000 2.778008 0.587842 0.915885 -10.027222 6.726515 7.064143 4.873035 -11.834229 -1.673152 0.000000 0.000000 0.000000 1.919697 -0.691112 0.600244 1.054634 -1.081173 0.023467 2.134793 -1.830301 -1.258070 1.044236 8.261824 -85.112087 13.738380 -26.449252 5.950030 0.000000 0.000000 0.000000 2.949550 -0.576792 1.062083 2.363268 -3.377740 2.440967 -5.253877 -0.357973 -0.669094 -4.487980 13.852205 78.554320 0.160268 18.942971 -3.385385 0.000000 0.000000 0.000000 
4.061773 35.380550 -1.420241 0.000000 0.000000 0.000000 -2.652474 4.306156 -0.082040 -3.964938 12.630740 3.237712 17.829842 -3.950401 5.897062 -15.187392 4.582406 -6.735949 4.965820 -2.995748 2.182370 0.000000 0.000000 0.000000 -2.675207 4.585023 -0.235315 -1.052514 -0.792088 -4.095083 11.581906 5.144610 3.230079 -12.176050 -5.275573 14.414182 2.996576 2.684219 -16.175765 0.000000 0.000000 0.000000 -2.881535 9.320918 -0.730970 3.972201 -3.328894 0.852289 3.618733 -0.947041 0.743803 0.109320 -0.385827 0.088156 0.000000 0.000000 0.000000 2.579613 0.576232 1.120624 -10.080313 6.830277 7.367563 5.519996 -11.202625 -1.083230 0.000000 0.000000 0.000000 1.796608 -0.692720 0.856124 0.978275 -1.118601 -0.020042 1.937265 -1.421518 -1.428135 0.908331 7.632154 -85.094048 14.310919 -26.665550 6.083769 0.000000 0.000000 0.000000 2.790241 -0.598287 1.212209 2.443482 -2.955269 2.217590 -5.263887 -0.413648 -0.619623 -4.970831 12.884395 78.597733 -0.035074 19.231825 -3.375199 0.000000 0.000000 0.000000 
